grf
version=1
nRows=12
nColumns=37
inDegrees=no
endheader
time	ground_force_1_vx	ground_force_1_vy	ground_force_1_vz	ground_force_1_px	ground_force_1_py	ground_force_1_pz	ground_moment_1_mx	ground_moment_1_my	ground_moment_1_mz	ground_force_2_vx	ground_force_2_vy	ground_force_2_vz	ground_force_2_px	ground_force_2_py	ground_force_2_pz	ground_moment_2_mx	ground_moment_2_my	ground_moment_2_mz	ground_force_3_vx	ground_force_3_vy	ground_force_3_vz	ground_force_3_px	ground_force_3_py	ground_force_3_pz	ground_moment_3_mx	ground_moment_3_my	ground_moment_3_mz	ground_force_4_vx	ground_force_4_vy	ground_force_4_vz	ground_force_4_px	ground_force_4_py	ground_force_4_pz	ground_moment_4_mx	ground_moment_4_my	ground_moment_4_mz
      0.00000000	      0.00000000	     -0.00000000	      0.00000000	      0.00000000	      0.00000000	      0.00000000	      0.00000000	      0.00000000	      0.00000000	      0.80289459	     86.55286407	   -505.81106567	   -304.11754091	  -1191.64848857	      0.00000000	      0.00000000	      0.00000000	   2192.00113126	      9.12281986	    -87.69865497	   -482.14065552	   -330.77415257	   -620.88643041	      0.00000000	      0.00000000	     -0.00000000	  -2665.33438956	      0.00000000	     -0.00000000	      0.00000000	      0.00000000	      0.00000000	      0.00000000	      0.00000000	      0.00000000	      0.00000000
      0.01000000	      0.00000000	     -0.00000000	      0.00000000	      0.00000000	      0.00000000	      0.00000000	      0.00000000	      0.00000000	      0.00000000	      0.97433472	     86.43906403	   -507.77600098	   -304.73728809	  -1192.41129374	      0.00000000	      0.00000000	      0.00000000	   2214.20383901	      9.00188918	    -87.78248675	   -483.44662476	   -330.24236186	   -620.80147617	      0.00000000	      0.00000000	     -0.00000000	  -2484.54923998	      0.00000000	     -0.00000000	      0.00000000	      0.00000000	      0.00000000	      0.00000000	      0.00000000	      0.00000000	      0.00000000
      0.02000000	      0.00000000	     -0.00000000	      0.00000000	      0.00000000	      0.00000000	      0.00000000	      0.00000000	      0.00000000	      0.00000000	      1.31808531	     86.55899048	   -506.52624512	   -304.49264640	  -1191.34739531	      0.00000000	      0.00000000	      0.00000000	   2104.36461693	      8.95074933	    -88.03423388	   -480.79956055	   -330.77911377	   -621.90396384	      0.00000000	      0.00000000	     -0.00000000	  -2632.75776754	      0.00000000	     -0.00000000	      0.00000000	      0.00000000	      0.00000000	      0.00000000	      0.00000000	      0.00000000	      0.00000000
      0.03000000	      0.00000000	     -0.00000000	      0.00000000	      0.00000000	      0.00000000	      0.00000000	      0.00000000	      0.00000000	      0.00000000	      0.79968286	     86.48217010	   -506.49816895	   -304.57814348	  -1190.97303020	      0.00000000	      0.00000000	      0.00000000	   2134.31620980	      8.69803232	    -87.95530777	   -482.44125366	   -329.90013172	   -621.31217658	      0.00000000	      0.00000000	     -0.00000000	  -2448.19009794	      0.00000000	     -0.00000000	      0.00000000	      0.00000000	      0.00000000	      0.00000000	      0.00000000	      0.00000000	      0.00000000
      0.04000000	      0.00000000	     -0.00000000	      0.00000000	      0.00000000	      0.00000000	      0.00000000	      0.00000000	      0.00000000	      0.00000000	      1.14434922	     86.80686951	   -507.51959229	   -304.42267553	  -1190.88144315	      0.00000000	      0.00000000	      0.00000000	   2128.73585629	      8.25859544	    -87.54371715	   -482.61117554	   -330.04180765	   -621.18506791	      0.00000000	      0.00000000	     -0.00000000	  -2518.97339547	      0.00000000	     -0.00000000	      0.00000000	      0.00000000	      0.00000000	      0.00000000	      0.00000000	      0.00000000	      0.00000000
      0.05000000	      0.00000000	     -0.00000000	      0.00000000	      0.00000000	      0.00000000	      0.00000000	      0.00000000	      0.00000000	      0.00000000	      0.98131561	     86.11467743	   -506.43670654	   -304.89325563	  -1190.85855140	      0.00000000	      0.00000000	      0.00000000	   2083.04117646	      8.52446075	    -87.78357008	   -483.62362671	   -330.77250601	   -621.40204127	      0.00000000	      0.00000000	     -0.00000000	  -2525.73766143	      0.00000000	     -0.00000000	      0.00000000	      0.00000000	      0.00000000	      0.00000000	      0.00000000	      0.00000000	      0.00000000
      0.06000000	      0.00000000	     -0.00000000	      0.00000000	      0.00000000	      0.00000000	      0.00000000	      0.00000000	      0.00000000	      0.00000000	      1.57780957	     86.80183411	   -505.09161377	   -305.31608096	  -1190.10726669	      0.00000000	      0.00000000	      0.00000000	   2154.30611357	      8.61288258	    -87.69947890	   -483.24145508	   -330.89632933	   -621.80719327	      0.00000000	      0.00000000	     -0.00000000	  -2459.30346236	      0.00000000	     -0.00000000	      0.00000000	      0.00000000	      0.00000000	      0.00000000	      0.00000000	      0.00000000	      0.00000000
      0.07000000	      0.00000000	     -0.00000000	      0.00000000	      0.00000000	      0.00000000	      0.00000000	      0.00000000	      0.00000000	      0.00000000	      1.33548164	     86.35665894	   -504.81069946	   -305.42843154	  -1190.58306037	      0.00000000	      0.00000000	      0.00000000	   2181.31745736	      9.47284219	    -87.52679526	   -484.63754272	   -331.07394636	   -621.31841284	      0.00000000	      0.00000000	     -0.00000000	  -2613.12896645	      0.00000000	     -0.00000000	      0.00000000	      0.00000000	      0.00000000	      0.00000000	      0.00000000	      0.00000000	      0.00000000
      0.08000000	      0.00000000	     -0.00000000	      0.00000000	      0.00000000	      0.00000000	      0.00000000	      0.00000000	      0.00000000	      0.00000000	      1.06546271	     86.88443756	   -504.69415283	   -305.83522300	  -1191.27154828	      0.00000000	      0.00000000	      0.00000000	   1946.42782914	      9.14091016	    -87.18827137	   -483.98248291	   -331.41977665	   -621.51004629	      0.00000000	      0.00000000	     -0.00000000	  -2513.33236436	      0.00000000	     -0.00000000	      0.00000000	      0.00000000	      0.00000000	      0.00000000	      0.00000000	      0.00000000	      0.00000000
      0.09000000	      0.00000000	     -0.00000000	      0.00000000	      0.00000000	      0.00000000	      0.00000000	      0.00000000	      0.00000000	      0.00000000	      1.51178408	     86.12392426	   -505.45745850	   -305.43000973	  -1190.44381679	      0.00000000	      0.00000000	      0.00000000	   2035.02748853	      8.97764871	    -87.60443957	   -484.73495483	   -331.61867747	   -622.22315776	      0.00000000	      0.00000000	     -0.00000000	  -2609.05793156	      0.00000000	     -0.00000000	      0.00000000	      0.00000000	      0.00000000	      0.00000000	      0.00000000	      0.00000000	      0.00000000
      0.10000000	      0.00000000	     -0.00000000	      0.00000000	      0.00000000	      0.00000000	      0.00000000	      0.00000000	      0.00000000	      0.00000000	      1.51432574	     86.63024902	   -506.08010864	   -306.33420516	  -1190.44434478	      0.00000000	      0.00000000	      0.00000000	   2206.26918672	      9.39647578	    -87.45213400	   -486.07302856	   -332.41236985	   -621.62434957	      0.00000000	      0.00000000	      0.00000000	  -2770.72791397	      0.00000000	     -0.00000000	      0.00000000	      0.00000000	      0.00000000	      0.00000000	      0.00000000	      0.00000000	      0.00000000
      0.11000000	      0.00000000	     -0.00000000	      0.00000000	      0.00000000	      0.00000000	      0.00000000	      0.00000000	      0.00000000	      0.00000000	      0.81986469	     86.81301880	   -507.16638184	   -306.28333887	  -1191.40808076	      0.00000000	      0.00000000	      0.00000000	   1974.12298403	      9.03859518	    -87.52679522	   -486.05798340	   -331.89182847	   -622.43208361	      0.00000000	      0.00000000	     -0.00000000	  -2472.75426229	      0.00000000	     -0.00000000	      0.00000000	      0.00000000	      0.00000000	      0.00000000	      0.00000000	      0.00000000	      0.00000000
